<svg xmlns="http://www.w3.org/2000/svg" width="410" height="404" viewBox="0 0 410 404" fill="none">
  <path d="M399.641 59.5246L215.643 388.545C211.844 395.338 202.084 395.378 198.228 388.618L10.5817 59.5563C6.38087 52.1896 12.6802 43.2665 21.0281 44.7586L205.223 77.6824C206.398 77.8924 207.601 77.8904 208.776 77.6763L389.119 44.8058C397.439 43.2894 403.768 52.1434 399.641 59.5246Z" fill="url(#paint0_linear)"/>
  <path d="M292.965 1.5744L156.801 28.2552C154.563 28.6937 152.906 30.5903 152.771 32.8664L144.417 174.33C144.198 178.093 147.495 181.046 151.198 180.326L188.42 173.114C192.331 172.355 195.885 175.507 195.347 179.434L186.66 241.165C186.105 245.206 189.868 248.544 193.782 247.56L212.947 242.722C216.865 241.737 220.632 245.081 220.071 249.125L206.329 348.363C205.579 353.756 212.764 356.629 215.492 351.681L217.461 348.164L324.675 102.623C326.34 98.6791 323.086 94.3171 318.846 95.1406L280.697 102.522C276.755 103.272 273.178 99.8171 273.965 95.8301L300.718 54.3947C303.219 50.5339 300.084 45.4757 295.56 46.3379L256.243 53.8655C252.217 54.6269 248.73 50.8681 250.251 47.0407L270.459 0.862541C272.312 -3.65166 268.357 -8.36944 263.663 -7.43839Z" fill="url(#paint1_linear)"/>
  <defs>
    <linearGradient id="paint0_linear" x1="6.00017" y1="32.9999" x2="235" y2="344" gradientUnits="userSpaceOnUse">
      <stop stop-color="#41D1FF"/>
      <stop offset="1" stop-color="#BD34FE"/>
    </linearGradient>
    <linearGradient id="paint1_linear" x1="194.651" y1="8.81818" x2="236.076" y2="292.989" gradientUnits="userSpaceOnUse">
      <stop stop-color="#FFEA83"/>
      <stop offset="0.0833333" stop-color="#FFDD35"/>
      <stop offset="1" stop-color="#FFA800"/>
    </linearGradient>
  </defs>
</svg>
